<?xml version="1.0" encoding="UTF-8" standalone="no"?>
<!-- Created with Inkscape (http://www.inkscape.org/) -->

<svg
   width="210mm"
   height="297mm"
   viewBox="0 0 210 297"
   version="1.1"
   id="svg5"
   inkscape:version="1.1.2 (b8e25be833, 2022-02-05)"
   sodipodi:docname="SM-polos-Twitter.svg"
   xmlns:inkscape="http://www.inkscape.org/namespaces/inkscape"
   xmlns:sodipodi="http://sodipodi.sourceforge.net/DTD/sodipodi-0.dtd"
   xmlns="http://www.w3.org/2000/svg"
   xmlns:svg="http://www.w3.org/2000/svg">
  <sodipodi:namedview
     id="namedview7"
     pagecolor="#ffffff"
     bordercolor="#666666"
     borderopacity="1.0"
     inkscape:pageshadow="2"
     inkscape:pageopacity="0.0"
     inkscape:pagecheckerboard="0"
     inkscape:document-units="mm"
     showgrid="false"
     inkscape:zoom="0.54252946"
     inkscape:cx="397.21345"
     inkscape:cy="562.18145"
     inkscape:window-width="1600"
     inkscape:window-height="837"
     inkscape:window-x="-8"
     inkscape:window-y="-8"
     inkscape:window-maximized="1"
     inkscape:current-layer="layer1" />
  <defs
     id="defs2" />
  <g
     inkscape:label="Layer 1"
     inkscape:groupmode="layer"
     id="layer1">
    <rect
       style="fill:none;stroke-width:0.865738;stroke-linecap:square;stroke-dashoffset:39.3071;stroke:none"
       id="rect846"
       width="200"
       height="200"
       x="5.3645325"
       y="-250.47537"
       transform="scale(1,-1)" />
    <path
       style="fill:#01cdff;fill-opacity:1;stroke:none;stroke-width:1.64755;stroke-linecap:square;stroke-linejoin:round;stroke-miterlimit:4;stroke-dasharray:none;stroke-opacity:1;paint-order:normal"
       d="m 52.119517,221.35133 c -12.62443,-3.2073 -17.605768,-4.94482 -26.060827,-9.09027 l -7.897931,-3.87222 11.530507,-0.90674 c 12.886117,-1.01333 27.647829,-5.47306 35.868809,-10.83648 2.99693,-1.9552 10.740589,-4.34918 10.740589,-4.67318 0,-0.32405 -8.724475,-1.17549 -12.920079,-2.53895 -4.195734,-1.36344 -9.798233,-4.09882 -12.450222,-6.07864 -4.778408,-3.56734 -13.341216,-14.21888 -13.341216,-16.59557 0,-0.67925 8.234083,-0.70585 11.830284,-0.70585 7.693821,0 8.431744,-1.63753 1.816346,-4.03039 -10.098689,-3.65279 -26.723978,-19.60616 -26.723978,-29.69689 v -4.44184 l 6.834123,2.05677 c 3.758775,1.13121 14.488578,6.04395 14.789426,5.74312 0.300914,-0.30085 -9.178488,-7.23691 -12.010534,-10.23941 -2.832062,-3.00252 -6.153582,-8.40674 -7.381109,-12.0094 -3.525893,-10.34801 -2.743025,-25.619683 1.567782,-30.583484 0.275435,-0.316641 3.299465,1.971893 6.720967,5.085626 18.381425,16.727868 33.073254,24.482698 57.77208,30.494028 13.950056,3.39522 13.975736,3.38229 14.074276,-7.09133 0.16599,-17.615367 11.2347,-30.879993 29.96328,-35.90678 8.85731,-2.377339 20.46505,0.0784 28.75473,6.083398 6.93291,5.022197 8.92353,5.06269 19.47533,0.396159 4.59426,-2.031778 8.65103,-3.396245 9.01517,-3.03214 0.87159,0.871593 -6.70096,7.881711 -11.25895,12.886525 -4.83094,5.304666 -3.16244,6.433588 4.937,3.340379 3.66261,-1.398769 10.16722,-2.210359 10.57407,-1.803515 0.40661,0.406843 -3.13036,4.694728 -7.86033,9.528644 l -8.59992,8.78901 -1.79559,15.69013 c -4.28021,37.40124 -17.56503,61.62183 -42.96142,78.32664 -13.27848,8.73407 -18.44782,10.94749 -35.59942,15.24328 -13.080515,3.27613 -37.444297,3.50759 -49.403243,0.46933 z"
       id="path4608-3"
       inkscape:connector-curvature="0"
       sodipodi:nodetypes="cccsssccsssscccscccscsssccscccssscc" />
  </g>
</svg>
