<?xml version="1.0" encoding="UTF-8" standalone="no"?>
<!-- Created with Inkscape (http://www.inkscape.org/) -->

<svg
   width="100mm"
   height="100mm"
   viewBox="0 0 100 100"
   version="1.1"
   id="svg5"
   inkscape:version="1.1.2 (b8e25be833, 2022-02-05)"
   sodipodi:docname="SM-polos-Twitter.svg"
   xmlns:inkscape="http://www.inkscape.org/namespaces/inkscape"
   xmlns:sodipodi="http://sodipodi.sourceforge.net/DTD/sodipodi-0.dtd"
   xmlns="http://www.w3.org/2000/svg"
   xmlns:svg="http://www.w3.org/2000/svg">
  <sodipodi:namedview
     id="namedview7"
     pagecolor="#ffffff"
     bordercolor="#666666"
     borderopacity="1.0"
     inkscape:pageshadow="2"
     inkscape:pageopacity="0.0"
     inkscape:pagecheckerboard="0"
     inkscape:document-units="mm"
     showgrid="false"
     inkscape:zoom="0.13563237"
     inkscape:cx="394.44863"
     inkscape:cy="412.8808"
     inkscape:window-width="1600"
     inkscape:window-height="837"
     inkscape:window-x="-8"
     inkscape:window-y="-8"
     inkscape:window-maximized="1"
     inkscape:current-layer="layer1"
     width="100mm"
     inkscape:snap-object-midpoints="true" />
  <defs
     id="defs2" />
  <g
     inkscape:label="Layer 1"
     inkscape:groupmode="layer"
     id="layer1">
    <path
       style="fill:#01cdff;fill-opacity:1;stroke:none;stroke-width:0.849462;stroke-linecap:square;stroke-linejoin:round;stroke-miterlimit:4;stroke-dasharray:none;stroke-opacity:1;paint-order:normal"
       d="M 21.051362,87.296456 C 14.542318,85.642801 11.973984,84.746951 7.6146303,82.609594 l -4.072103,-1.996483 5.945027,-0.467507 C 16.131522,79.62314 23.742531,77.323743 27.981195,74.558411 c 1.54519,-1.008084 5.537753,-2.242399 5.537753,-2.409451 0,-0.167077 -4.49826,-0.606072 -6.661479,-1.30906 -2.163283,-0.702977 -5.051882,-2.113315 -6.419224,-3.134093 -2.463705,-1.839289 -6.878613,-7.331128 -6.878613,-8.556529 0,-0.350215 4.24542,-0.36393 6.09959,-0.36393 3.966866,0 4.347332,-0.844296 0.936492,-2.078033 C 15.388919,54.82397 6.8170673,46.598554 6.8170673,41.395862 v -2.290173 l 3.5236127,1.060452 c 1.937992,0.583242 7.470183,3.116208 7.625298,2.961102 0.155148,-0.155115 -4.732348,-3.731286 -6.192525,-5.279349 -1.460187,-1.548073 -3.1727327,-4.334441 -3.8056347,-6.191941 -1.817919,-5.335342 -1.414279,-13.209281 0.808335,-15.768573 0.142011,-0.163257 1.7011747,1.01669 3.4652707,2.622104 9.4773,8.62474 17.052275,12.623062 29.786772,15.72245 7.192528,1.750546 7.205768,1.743879 7.256574,-3.656227 0.08558,-9.082327 5.792512,-15.921451 15.4488,-18.513217 4.56675,-1.225735 10.5516,0.04042 14.82569,3.136546 3.57454,2.5894 4.60089,2.610278 10.0413,0.204256 2.36876,-1.047567 4.4604,-1.751074 4.64815,-1.563345 0.44938,0.449386 -3.45496,4.063741 -5.80502,6.644179 -2.49079,2.735038 -1.63052,3.317101 2.54548,1.722269 1.8884,-0.721192 5.24212,-1.139641 5.45189,-0.929876 0.20965,0.209765 -1.61398,2.42056 -4.05271,4.912885 l -4.43405,4.531535 -0.92579,8.089693 c -2.20684,19.283747 -9.05637,31.771669 -22.15053,40.384521 -6.846262,4.503209 -9.511528,5.644429 -18.354742,7.8593 -6.7442,1.689144 -19.305949,1.808483 -25.471876,0.241983 z"
       id="path4608-3"
       inkscape:connector-curvature="0"
       sodipodi:nodetypes="cccsssccsssscccscccscsssccscccssscc" />
  </g>
</svg>
