<?xml version="1.0" encoding="UTF-8" standalone="no"?>
<!-- Created with Inkscape (http://www.inkscape.org/) -->

<svg
   width="210mm"
   height="297mm"
   viewBox="0 0 210 297"
   version="1.1"
   id="svg5"
   sodipodi:docname="SM-polos-Twitter.svg"
   inkscape:version="1.1.2 (b8e25be833, 2022-02-05)"
   xmlns:inkscape="http://www.inkscape.org/namespaces/inkscape"
   xmlns:sodipodi="http://sodipodi.sourceforge.net/DTD/sodipodi-0.dtd"
   xmlns="http://www.w3.org/2000/svg"
   xmlns:svg="http://www.w3.org/2000/svg">
  <sodipodi:namedview
     id="namedview7"
     pagecolor="#ffffff"
     bordercolor="#666666"
     borderopacity="1.0"
     inkscape:pageshadow="2"
     inkscape:pageopacity="0.0"
     inkscape:pagecheckerboard="0"
     inkscape:document-units="mm"
     showgrid="false"
     inkscape:lockguides="true"
     inkscape:zoom="0.54252946"
     inkscape:cx="397.21345"
     inkscape:cy="562.18145"
     inkscape:window-width="1600"
     inkscape:window-height="837"
     inkscape:window-x="-8"
     inkscape:window-y="-8"
     inkscape:window-maximized="1"
     inkscape:current-layer="layer1" />
  <defs
     id="defs2" />
  <g
     inkscape:label="Layer 1"
     inkscape:groupmode="layer"
     id="layer1">
    <rect
       style="fill:none;fill-opacity:1;stroke:none;stroke-width:2.86546;stroke-linecap:square;stroke-dashoffset:39.3071;stroke-opacity:1"
       id="rect846"
       width="136.1133"
       height="200"
       x="3.9014776"
       y="36.088669" />
    <path
       style="fill:#0080ff;fill-opacity:1;stroke:none;stroke-width:1.94338;stroke-linecap:square;stroke-linejoin:round;stroke-miterlimit:4;stroke-dasharray:none;stroke-opacity:1;paint-order:normal"
       d="m 47.389343,183.13498 v -38.5637 H 33.677742 19.96616 V 129.1458 113.72032 H 33.677742 47.389343 V 98.252052 c 0,-17.053158 3.637065,-30.53432 10.582882,-39.226415 6.872393,-8.600271 24.487118,-14.508213 38.449596,-12.895951 17.134129,1.978552 16.097249,1.002834 16.097249,15.148391 v 12.622257 l -11.17652,0.711631 C 85.03018,75.650729 82.698847,78.499704 81.926123,98.340572 l -0.599165,15.379748 h 15.78181 c 15.502932,0 15.765112,0.0682 14.839152,3.85637 -0.51847,2.12099 -1.83806,9.06246 -2.9326,15.42549 l -1.99009,11.5691 H 94.346603 81.667969 v 38.5637 38.56371 H 64.528617 47.389188 Z"
       id="path4592-8"
       inkscape:connector-curvature="0" />
  </g>
</svg>
