<?xml version="1.0" encoding="UTF-8" standalone="no"?>
<!-- Created with Inkscape (http://www.inkscape.org/) -->

<svg
   width="210mm"
   height="297mm"
   viewBox="0 0 210 297"
   version="1.1"
   id="svg5"
   sodipodi:docname="SM-polos-Pinterest.svg"
   inkscape:version="1.1.2 (b8e25be833, 2022-02-05)"
   xmlns:inkscape="http://www.inkscape.org/namespaces/inkscape"
   xmlns:sodipodi="http://sodipodi.sourceforge.net/DTD/sodipodi-0.dtd"
   xmlns="http://www.w3.org/2000/svg"
   xmlns:svg="http://www.w3.org/2000/svg">
  <sodipodi:namedview
     id="namedview7"
     pagecolor="#ffffff"
     bordercolor="#666666"
     borderopacity="1.0"
     inkscape:pageshadow="2"
     inkscape:pageopacity="0.0"
     inkscape:pagecheckerboard="0"
     inkscape:document-units="mm"
     showgrid="false"
     inkscape:zoom="0.54252946"
     inkscape:cx="397.21345"
     inkscape:cy="562.18145"
     inkscape:window-width="1600"
     inkscape:window-height="837"
     inkscape:window-x="-8"
     inkscape:window-y="-8"
     inkscape:window-maximized="1"
     inkscape:current-layer="layer1" />
  <defs
     id="defs2" />
  <g
     inkscape:label="Layer 1"
     inkscape:groupmode="layer"
     id="layer1">
    <rect
       style="fill:none;stroke-width:0.865738;stroke-linecap:square;stroke-dashoffset:39.3071;stroke:none"
       id="rect846"
       width="200"
       height="200"
       x="5.3645325"
       y="-250.47537"
       transform="scale(1,-1)" />
    <path
       style="fill:#fe0000;fill-opacity:1;stroke:none;stroke-width:2.00844;stroke-linecap:square;stroke-linejoin:round;stroke-miterlimit:4;stroke-dasharray:none;stroke-opacity:1;paint-order:normal"
       d="m 63.014861,231.52398 c -1.430324,-11.44741 0.184164,-30.00922 3.697055,-42.50203 8.210183,-29.19934 11.322228,-45.24007 9.637091,-49.67238 -4.76814,-12.54114 -0.131032,-30.48877 9.374548,-36.28463 7.5264,-4.58905 11.165949,-4.399953 16.418855,0.85281 5.73411,5.73416 5.71903,15.14887 -0.0531,33.73578 -2.420765,7.79379 -4.413387,16.65364 -4.428089,19.68852 -0.06072,11.91847 12.375309,19.23589 25.386859,14.94175 14.41037,-4.75586 24.00851,-22.50536 25.47664,-47.11277 1.18544,-19.86996 -0.95147,-27.124269 -10.92947,-37.102263 -10.11966,-10.119631 -26.25894,-14.759476 -41.024761,-11.794082 -27.853071,5.59372 -43.74002,23.798575 -43.74002,50.121725 0,8.98553 0.931244,13.43118 3.849639,18.37743 2.865802,4.85719 3.56011,8.06815 2.716713,12.56382 -0.623,3.32152 -1.741804,6.41544 -2.485929,6.87535 -2.728538,1.68634 -13.42503,-7.4322 -17.730004,-15.11448 -3.876844,-6.91834 -4.420207,-9.99784 -4.362901,-24.72997 0.06072,-14.92113 0.629832,-17.91343 5.045085,-26.411524 7.380268,-14.20385 19.73581,-25.311513 35.416684,-31.839435 11.844717,-4.930951 15.144102,-5.516799 31.069804,-5.516799 15.00638,0 19.61285,0.718478 29.19417,4.554175 30.00022,12.010025 43.9507,41.313193 35.77956,75.155473 -7.34677,30.42805 -27.19415,49.59719 -51.35213,49.59719 -10.9918,0 -17.52726,-2.26098 -24.316835,-8.41255 l -4.637328,-4.20152 -3.91867,16.1735 c -2.155334,8.89548 -5.279285,19.10675 -6.94229,22.69179 -3.222684,6.94782 -14.301684,25.11718 -15.315383,25.11718 -0.333492,0 -1.154598,-4.38842 -1.824738,-9.75198 z"
       id="path4612-1"
       inkscape:connector-curvature="0" />
  </g>
</svg>
