<?xml version="1.0" encoding="UTF-8" standalone="no"?>
<!-- Created with Inkscape (http://www.inkscape.org/) -->

<svg
   width="100mm"
   height="100mm"
   viewBox="0 0 100 100"
   version="1.1"
   id="svg5"
   sodipodi:docname="SM-Pinterest.svg"
   inkscape:version="1.1.2 (b8e25be833, 2022-02-05)"
   xmlns:inkscape="http://www.inkscape.org/namespaces/inkscape"
   xmlns:sodipodi="http://sodipodi.sourceforge.net/DTD/sodipodi-0.dtd"
   xmlns="http://www.w3.org/2000/svg"
   xmlns:svg="http://www.w3.org/2000/svg">
  <sodipodi:namedview
     id="namedview7"
     pagecolor="#ffffff"
     bordercolor="#666666"
     borderopacity="1.0"
     inkscape:pageshadow="2"
     inkscape:pageopacity="0.0"
     inkscape:pagecheckerboard="0"
     inkscape:document-units="mm"
     showgrid="false"
     inkscape:zoom="0.82648893"
     inkscape:cx="184.51548"
     inkscape:cy="208.10926"
     inkscape:window-width="1600"
     inkscape:window-height="837"
     inkscape:window-x="-8"
     inkscape:window-y="-8"
     inkscape:window-maximized="1"
     inkscape:current-layer="layer1"
     inkscape:snap-object-midpoints="true"
     width="100mm" />
  <defs
     id="defs2">
    <clipPath
       clipPathUnits="userSpaceOnUse"
       id="clipPath5152">
      <path
         style="opacity:0.5;fill:#ff497d;fill-opacity:1;stroke:none;stroke-width:0.147748;stroke-linecap:square;stroke-linejoin:round;stroke-miterlimit:4;stroke-dasharray:none;stroke-opacity:1;paint-order:normal"
         d="m -441.58482,29.170317 v 25.374854 h -27.68166 c 9.60397,-7.918273 18.59211,-16.633741 27.68166,-25.374854 z"
         id="path5154"
         inkscape:connector-curvature="0"
         sodipodi:nodetypes="cccc" />
    </clipPath>
  </defs>
  <g
     inkscape:label="Layer 1"
     inkscape:groupmode="layer"
     id="layer1">
    <path
       style="fill:#ffffff;stroke-width:2.41911;stroke-linecap:square;stroke-dashoffset:39.3071"
       d="m 136.72294,350.63859 c -1.99639,-0.69422 -7.65354,-2.91171 -12.57143,-4.92774 l -8.94162,-3.66553 0.74111,-14.03326 c 0.81234,-15.38206 3.94366,-31.18402 12.23746,-61.75531 6.63154,-24.44416 7.9068,-34.98972 7.91959,-65.48999 0.0111,-26.49292 1.01589,-32.03351 7.58332,-41.81621 6.82482,-10.16611 18.28543,-14.15322 32.91081,-11.44957 8.15243,1.50706 10.98357,3.59337 14.1073,10.39587 4.32069,9.40915 2.53791,26.49605 -6.14338,58.88056 -4.01709,14.9853 -4.69001,25.79785 -1.93685,31.12187 3.97765,7.69192 16.85506,14.12168 25.9111,12.93754 13.24457,-1.73182 24.83798,-12.4333 34.10963,-31.48538 7.15323,-14.69899 10.67727,-28.46512 11.63262,-45.44093 1.39476,-24.78429 -2.97599,-38.64655 -16.43799,-52.13461 -13.90697,-13.9339 -31.33547,-20.03107 -53.9341,-18.86824 -22.14868,1.13967 -40.15498,8.91749 -55.10454,23.80238 -9.67547,9.63362 -15.96182,19.87515 -18.7973,30.62395 -4.33943,16.44999 -3.12761,34.37005 3.24828,48.0349 6.641,14.233 6.94537,27.03217 0.79844,33.57528 -8.67705,9.23629 -32.030969,-8.4935 -38.93845,-29.56122 -4.62334,-14.10113 -4.364246,-47.59608 0.506398,-65.46557 3.409609,-12.50922 10.455192,-24.01048 22.207987,-36.25246 12.103055,-12.60683 21.386215,-19.647175 34.773115,-26.371914 17.85459,-8.969032 21.40821,-9.552252 57.96073,-9.51252 36.86164,0.04007 38.80546,0.425366 58.68197,11.631713 23.18584,13.072151 34.90402,26.153731 44.00013,49.119511 6.15917,15.55062 7.78645,23.71514 7.76495,38.95892 -0.0215,15.30093 -2.07079,27.03384 -7.65461,43.82698 -11.09812,33.37733 -30.11581,54.86655 -56.20985,63.5149 -8.79927,2.91635 -11.44863,3.21532 -29.13388,3.28775 l -19.45438,0.0797 -9.09516,-4.67798 c -10.86454,-5.58804 -13.83526,-5.30692 -14.99323,1.41884 -3.58693,20.83373 -18.93509,63.32838 -22.77431,63.05553 -0.73922,-0.0525 -2.97746,-0.66351 -4.97386,-1.35772 z"
       id="huruf"
       transform="scale(0.26458333)" />
    <path
       style="fill:#fe0000;fill-opacity:1;stroke:none;stroke-width:1.00551;stroke-linecap:square;stroke-linejoin:round;stroke-miterlimit:4;stroke-dasharray:none;stroke-opacity:1;paint-order:normal"
       d="m 40.759205,94.653699 -3.32063,-0.59944 1.40446,-2.66044 c 1.71575,-3.25009 4.76622,-12.72565 4.78193,-14.85385 0.0152,-1.87724 1.61963,-1.95594 3.94981,-0.19352 1.12868,0.85367 3.83557,1.30198 7.8612,1.30198 11.31322,0 18.87591,-6.41436 22.79545,-19.33398 2.59354,-8.54889 2.17733,-15.52288 -1.35123,-22.63916 -2.85585,-5.75966 -5.61969,-8.43547 -12.30872,-11.91672 -4.09279,-2.13006 -5.46932,-2.35886 -14.28408,-2.37396 -8.68766,-0.0152 -10.30138,0.23791 -14.75141,2.31041 -6.25165,2.91155 -12.38055,8.87418 -14.84247,14.4398 -2.39437,5.4129 -2.63486,16.83089 -0.45138,21.4322 1.84344,3.88482 6.26592,7.60724 8.62983,7.26377 2.8269,-0.41071 3.60915,-5.64485 1.40601,-9.40772 -2.30843,-3.94264 -2.29625,-11.5218 0.0266,-16.07348 7.04984,-13.81886 28.21765,-15.59945 35.27276,-2.96711 1.94907,3.4899 2.25543,10.29948 0.73441,16.32426 -2.76088,10.93621 -9.5178,16.74399 -15.35229,13.19585 -3.34912,-2.03676 -3.80419,-3.88387 -2.30437,-9.35417 2.83164,-10.3279 3.27813,-14.14275 1.97487,-16.87452 -0.95209,-1.99578 -1.9389,-2.66807 -4.23956,-2.8883 -4.67014,-0.44702 -6.8871,0.47885 -8.88424,3.71031 -1.57885,2.55466 -1.82006,4.24153 -1.68031,11.75159 0.11231,6.04744 -0.29483,10.28237 -1.3129,13.64614 -2.43251,8.03763 -4.17778,16.31355 -4.17778,19.81074 v 3.2916 l -2.51345,-1.29974 c -5.07243,-2.62302 -11.68473,-8.61168 -15.16154,-13.73154 -17.1024497,-25.18444 -6.1584597,-58.49079 22.65593,-68.9498895 4.55946,-1.65497 7.52991,-2.08396 14.43013,-2.08396 16.56008,0 29.93673,7.2102995 38.66237,20.8397795 3.58646,5.60205 5.42769,10.7559 6.65309,18.62282 1.78895,11.48485 -2.29333,25.01992 -10.50053,34.815 -4.19619,5.00808 -13.22492,11.41196 -19.54965,13.86617 -4.24373,1.6467 -18.67295,2.58623 -24.25155,1.57908 z"
       id="lingkaran"
       inkscape:connector-curvature="0" />
  </g>
</svg>
