<?xml version="1.0" encoding="UTF-8" standalone="no"?>
<!-- Created with Inkscape (http://www.inkscape.org/) -->

<svg
   width="210mm"
   height="297mm"
   viewBox="0 0 210 297"
   version="1.1"
   id="svg5"
   sodipodi:docname="SM-polos-Instagram.svg"
   inkscape:version="1.1.2 (b8e25be833, 2022-02-05)"
   xmlns:inkscape="http://www.inkscape.org/namespaces/inkscape"
   xmlns:sodipodi="http://sodipodi.sourceforge.net/DTD/sodipodi-0.dtd"
   xmlns:xlink="http://www.w3.org/1999/xlink"
   xmlns="http://www.w3.org/2000/svg"
   xmlns:svg="http://www.w3.org/2000/svg">
  <sodipodi:namedview
     id="namedview7"
     pagecolor="#ffffff"
     bordercolor="#666666"
     borderopacity="1.0"
     inkscape:pageshadow="2"
     inkscape:pageopacity="0.0"
     inkscape:pagecheckerboard="0"
     inkscape:document-units="mm"
     showgrid="false"
     inkscape:lockguides="true"
     inkscape:zoom="0.54252946"
     inkscape:cx="397.21345"
     inkscape:cy="562.18145"
     inkscape:window-width="1600"
     inkscape:window-height="837"
     inkscape:window-x="-8"
     inkscape:window-y="-8"
     inkscape:window-maximized="1"
     inkscape:current-layer="layer1" />
  <defs
     id="defs2">
    <linearGradient
       inkscape:collect="always"
       xlink:href="#linearGradient5238"
       id="linearGradient5240"
       x1="-507.57358"
       y1="31.666082"
       x2="-499.96057"
       y2="40.028248"
       gradientUnits="userSpaceOnUse" />
    <linearGradient
       inkscape:collect="always"
       id="linearGradient5238">
      <stop
         style="stop-color:#ffdc10;stop-opacity:1"
         offset="0"
         id="stop5234" />
      <stop
         style="stop-color:#ff497d;stop-opacity:1"
         offset="1"
         id="stop5236" />
    </linearGradient>
    <linearGradient
       inkscape:collect="always"
       xlink:href="#linearGradient5246"
       id="linearGradient5248"
       x1="-498.55737"
       y1="40.740681"
       x2="-488.7149"
       y2="50.408871"
       gradientUnits="userSpaceOnUse" />
    <linearGradient
       inkscape:collect="always"
       id="linearGradient5246">
      <stop
         style="stop-color:#ff5177;stop-opacity:1"
         offset="0"
         id="stop5242" />
      <stop
         style="stop-color:#993cd6;stop-opacity:1"
         offset="1"
         id="stop5244" />
    </linearGradient>
    <clipPath
       clipPathUnits="userSpaceOnUse"
       id="clipPath5224">
      <g
         id="g5232">
        <path
           inkscape:connector-curvature="0"
           id="path5226"
           d="m -504.91019,52.931486 c -2.28299,-0.577219 -4.24902,-2.5824 -4.97757,-5.076671 -0.18581,-0.636147 -0.28096,-2.948574 -0.28096,-6.827336 0,-5.325188 0.0438,-5.982345 0.47521,-7.135508 0.63597,-1.699785 2.0173,-3.219192 3.6139,-3.975149 l 1.29906,-0.615071 h 6.66219 c 6.61302,0 6.67057,0.0042 7.79606,0.574567 2.05135,1.039499 3.24045,2.465106 3.87404,4.644583 0.31845,1.095435 0.36851,2.284397 0.30394,7.219365 -0.0875,6.691854 -0.18447,7.123145 -2.05739,9.155024 -1.90802,2.069961 -2.01488,2.094328 -9.46338,2.15775 -3.59918,0.03064 -6.85948,-0.02405 -7.2451,-0.121554 z m 13.89263,-2.355073 c 1.18549,-0.604797 2.24715,-1.920418 2.56349,-3.176751 0.34591,-1.373739 0.33602,-11.344011 -0.0124,-12.506963 -0.38665,-1.290525 -1.51348,-2.532331 -2.8718,-3.164827 -1.13953,-0.53062 -1.39707,-0.551939 -6.69417,-0.554133 -6.04583,-0.0025 -7.00085,0.153633 -8.3596,1.366717 -0.39623,0.353756 -0.9325,1.110695 -1.19171,1.682084 -0.43309,0.954696 -0.47129,1.521885 -0.47129,6.998573 0,6.57052 0.0986,7.112847 1.53782,8.457313 1.43023,1.33607 1.55037,1.35563 8.3356,1.35719 5.77083,0.0013 6.33184,-0.03463 7.16406,-0.459203 z"
           style="opacity:1;fill:#000000;fill-opacity:1;stroke:none;stroke-width:0.264997;stroke-linecap:square;stroke-linejoin:round;stroke-miterlimit:4;stroke-dasharray:none;stroke-opacity:1;paint-order:normal" />
        <path
           inkscape:connector-curvature="0"
           id="path5228"
           d="m -500.52644,46.454012 c -1.33288,-0.64487 -2.63494,-2.063823 -3.06454,-3.339643 -0.37342,-1.109 -0.33348,-3.080529 0.0826,-4.076288 0.83119,-1.989315 2.62994,-3.354477 4.70304,-3.569371 3.2184,-0.333608 5.65975,1.386175 6.41054,4.515845 0.45004,1.875979 -0.0128,3.515203 -1.43056,5.066452 -1.85309,2.027573 -4.33577,2.547374 -6.70105,1.403005 z m 3.93215,-1.645257 c 2.79251,-1.117339 3.18237,-5.05878 0.68205,-6.89522 -0.9626,-0.707005 -2.59631,-0.808051 -3.78228,-0.233933 -2.54466,1.231851 -3.03561,4.460056 -0.96955,6.375336 1.21031,1.121991 2.53596,1.367531 4.06978,0.753817 z"
           style="opacity:1;fill:#000000;fill-opacity:1;stroke:none;stroke-width:0.264997;stroke-linecap:square;stroke-linejoin:round;stroke-miterlimit:4;stroke-dasharray:none;stroke-opacity:1;paint-order:normal" />
        <path
           inkscape:connector-curvature="0"
           id="path5230"
           d="m -492.72089,35.652027 c -0.53861,-0.595159 -0.48245,-1.348804 0.13263,-1.77962 1.02764,-0.719781 2.05142,-0.1973 2.05142,1.046927 0,1.097655 -1.42204,1.574712 -2.18405,0.732693 z"
           style="opacity:1;fill:#000000;fill-opacity:1;stroke:none;stroke-width:0.264997;stroke-linecap:square;stroke-linejoin:round;stroke-miterlimit:4;stroke-dasharray:none;stroke-opacity:1;paint-order:normal" />
      </g>
    </clipPath>
    <linearGradient
       inkscape:collect="always"
       xlink:href="#linearGradient5238"
       id="linearGradient1393"
       gradientUnits="userSpaceOnUse"
       x1="-507.57358"
       y1="31.666082"
       x2="-499.96057"
       y2="40.028248" />
    <linearGradient
       inkscape:collect="always"
       xlink:href="#linearGradient5238"
       id="linearGradient1395"
       gradientUnits="userSpaceOnUse"
       x1="-507.57358"
       y1="31.666082"
       x2="-499.96057"
       y2="40.028248" />
    <linearGradient
       inkscape:collect="always"
       xlink:href="#linearGradient5238"
       id="linearGradient1397"
       gradientUnits="userSpaceOnUse"
       x1="-507.57358"
       y1="31.666082"
       x2="-499.96057"
       y2="40.028248" />
  </defs>
  <g
     inkscape:label="Layer 1"
     inkscape:groupmode="layer"
     id="layer1">
    <rect
       style="fill:none;stroke-width:3.47344;stroke-linecap:square;stroke-dashoffset:39.3071;stroke:none;stroke-opacity:1;fill-opacity:1"
       id="rect846"
       width="200"
       height="200"
       x="3.9014776"
       y="36.088669" />
    <g
       id="g5255"
       transform="matrix(7.2012407,0,0,7.2012407,3693.0841,-162.93825)">
      <g
         style="fill:url(#linearGradient5240);fill-opacity:1"
         id="g5030">
        <path
           style="opacity:1;fill:url(#linearGradient1393);fill-opacity:1;stroke:none;stroke-width:0.264997;stroke-linecap:square;stroke-linejoin:round;stroke-miterlimit:4;stroke-dasharray:none;stroke-opacity:1;paint-order:normal"
           d="m -504.91019,52.931486 c -2.28299,-0.577219 -4.24902,-2.5824 -4.97757,-5.076671 -0.18581,-0.636147 -0.28096,-2.948574 -0.28096,-6.827336 0,-5.325188 0.0438,-5.982345 0.47521,-7.135508 0.63597,-1.699785 2.0173,-3.219192 3.6139,-3.975149 l 1.29906,-0.615071 h 6.66219 c 6.61302,0 6.67057,0.0042 7.79606,0.574567 2.05135,1.039499 3.24045,2.465106 3.87404,4.644583 0.31845,1.095435 0.36851,2.284397 0.30394,7.219365 -0.0875,6.691854 -0.18447,7.123145 -2.05739,9.155024 -1.90802,2.069961 -2.01488,2.094328 -9.46338,2.15775 -3.59918,0.03064 -6.85948,-0.02405 -7.2451,-0.121554 z m 13.89263,-2.355073 c 1.18549,-0.604797 2.24715,-1.920418 2.56349,-3.176751 0.34591,-1.373739 0.33602,-11.344011 -0.0124,-12.506963 -0.38665,-1.290525 -1.51348,-2.532331 -2.8718,-3.164827 -1.13953,-0.53062 -1.39707,-0.551939 -6.69417,-0.554133 -6.04583,-0.0025 -7.00085,0.153633 -8.3596,1.366717 -0.39623,0.353756 -0.9325,1.110695 -1.19171,1.682084 -0.43309,0.954696 -0.47129,1.521885 -0.47129,6.998573 0,6.57052 0.0986,7.112847 1.53782,8.457313 1.43023,1.33607 1.55037,1.35563 8.3356,1.35719 5.77083,0.0013 6.33184,-0.03463 7.16406,-0.459203 z"
           id="path4602-0"
           inkscape:connector-curvature="0" />
        <path
           style="opacity:1;fill:url(#linearGradient1395);fill-opacity:1;stroke:none;stroke-width:0.264997;stroke-linecap:square;stroke-linejoin:round;stroke-miterlimit:4;stroke-dasharray:none;stroke-opacity:1;paint-order:normal"
           d="m -500.52644,46.454012 c -1.33288,-0.64487 -2.63494,-2.063823 -3.06454,-3.339643 -0.37342,-1.109 -0.33348,-3.080529 0.0826,-4.076288 0.83119,-1.989315 2.62994,-3.354477 4.70304,-3.569371 3.2184,-0.333608 5.65975,1.386175 6.41054,4.515845 0.45004,1.875979 -0.0128,3.515203 -1.43056,5.066452 -1.85309,2.027573 -4.33577,2.547374 -6.70105,1.403005 z m 3.93215,-1.645257 c 2.79251,-1.117339 3.18237,-5.05878 0.68205,-6.89522 -0.9626,-0.707005 -2.59631,-0.808051 -3.78228,-0.233933 -2.54466,1.231851 -3.03561,4.460056 -0.96955,6.375336 1.21031,1.121991 2.53596,1.367531 4.06978,0.753817 z"
           id="path4604-3"
           inkscape:connector-curvature="0" />
        <path
           style="opacity:1;fill:url(#linearGradient1397);fill-opacity:1;stroke:none;stroke-width:0.264997;stroke-linecap:square;stroke-linejoin:round;stroke-miterlimit:4;stroke-dasharray:none;stroke-opacity:1;paint-order:normal"
           d="m -492.72089,35.652027 c -0.53861,-0.595159 -0.48245,-1.348804 0.13263,-1.77962 1.02764,-0.719781 2.05142,-0.1973 2.05142,1.046927 0,1.097655 -1.42204,1.574712 -2.18405,0.732693 z"
           id="path4606-7"
           inkscape:connector-curvature="0" />
      </g>
      <path
         clip-path="url(#clipPath5224)"
         sodipodi:nodetypes="cccc"
         inkscape:connector-curvature="0"
         id="rect5221"
         d="m -482.98727,25.662081 v 32.295265 h -32.29526 c 11.15504,-10.380193 21.72084,-21.334914 32.29526,-32.295265 z"
         style="opacity:1;fill:url(#linearGradient5248);fill-opacity:1;stroke:none;stroke-width:0.3;stroke-linecap:square;stroke-linejoin:round;stroke-miterlimit:4;stroke-dasharray:none;stroke-opacity:1;paint-order:normal" />
    </g>
  </g>
</svg>
