<?xml version="1.0" encoding="UTF-8" standalone="no"?>
<!-- Created with Inkscape (http://www.inkscape.org/) -->

<svg
   width="210mm"
   height="297mm"
   viewBox="0 0 210 297"
   version="1.1"
   id="svg5"
   sodipodi:docname="SM-polos-Tiktok.svg"
   inkscape:version="1.1.2 (b8e25be833, 2022-02-05)"
   xmlns:inkscape="http://www.inkscape.org/namespaces/inkscape"
   xmlns:sodipodi="http://sodipodi.sourceforge.net/DTD/sodipodi-0.dtd"
   xmlns="http://www.w3.org/2000/svg"
   xmlns:svg="http://www.w3.org/2000/svg">
  <sodipodi:namedview
     id="namedview7"
     pagecolor="#ffffff"
     bordercolor="#666666"
     borderopacity="1.0"
     inkscape:pageshadow="2"
     inkscape:pageopacity="0.0"
     inkscape:pagecheckerboard="0"
     inkscape:document-units="mm"
     showgrid="false"
     inkscape:zoom="0.54252946"
     inkscape:cx="397.21345"
     inkscape:cy="562.18145"
     inkscape:window-width="1600"
     inkscape:window-height="837"
     inkscape:window-x="-8"
     inkscape:window-y="-8"
     inkscape:window-maximized="1"
     inkscape:current-layer="layer1" />
  <defs
     id="defs2">
    <filter
       inkscape:collect="always"
       style="color-interpolation-filters:sRGB"
       id="filter5016"
       x="-0.078299652"
       width="1.1565993"
       y="-0.06663855"
       height="1.1332771">
      <feGaussianBlur
         inkscape:collect="always"
         stdDeviation="0.68081385"
         id="feGaussianBlur5018" />
    </filter>
  </defs>
  <g
     inkscape:label="Layer 1"
     inkscape:groupmode="layer"
     id="layer1">
    <rect
       style="fill:none;stroke-width:0.865738;stroke-linecap:square;stroke-dashoffset:39.3071;stroke:none"
       id="background"
       width="200"
       height="200"
       x="5.3645325"
       y="-250.47537"
       transform="scale(1,-1)" />
    <path
       inkscape:connector-curvature="0"
       id="Shadow"
       d="m -503.35086,164.84985 c -3.25275,-0.87815 -5.39083,-3.31582 -5.67708,-6.47257 -0.36626,-4.03925 2.271,-7.40825 6.26508,-8.0034 l 1.2413,-0.18496 v 1.7283 c 0,1.58511 -0.0458,1.7283 -0.55241,1.7283 -1.70035,0 -3.6297,2.17307 -3.62786,4.08615 0.004,3.26779 4.19239,4.99434 6.72639,2.77223 1.29782,-1.13808 1.37379,-1.75531 1.37379,-11.16189 v -8.76285 h 1.69862 c 1.53547,0 1.69863,0.0512 1.69863,0.53307 0,1.99833 3.3215,5.18988 5.42254,5.21039 0.55698,0.005 0.58799,0.10907 0.58799,1.96569 v 1.95995 h -1.01341 c -1.3893,0 -2.72881,-0.60942 -4.08287,-1.85755 l -1.14108,-1.05182 -0.0826,6.22391 c -0.0817,6.15619 -0.0901,6.23813 -0.77536,7.53054 -1.04335,1.96783 -2.48302,3.08073 -4.7748,3.69102 -1.51149,0.4025 -2.00233,0.41228 -3.28689,0.0655 z"
       style="fill:#898989;fill-opacity:1;stroke:none;stroke-width:0.296308;stroke-linecap:square;stroke-linejoin:round;stroke-miterlimit:4;stroke-dasharray:none;stroke-opacity:1;paint-order:normal;filter:url(#filter5016)"
       transform="matrix(6.3567673,0,0,6.3567673,3274.4421,-822.33031)" />
    <path
       inkscape:connector-curvature="0"
       id="Main"
       d="M 81.485434,232.30945 C 60.808459,226.72725 47.217182,211.23155 45.397557,191.16483 43.069328,165.48825 59.833776,144.0723 85.223213,140.28907 l 7.890655,-1.17574 v 10.9864 c 0,10.07617 -0.29114,10.9864 -3.511542,10.9864 -10.808729,0 -23.073158,13.8137 -23.061461,25.9747 0.02543,20.77258 26.650047,31.74786 42.758095,17.62242 8.24994,-7.23451 8.73286,-11.15809 8.73286,-70.95353 V 78.026318 h 10.79774 c 9.76062,0 10.79779,0.325467 10.79779,3.388602 0,12.702919 21.114,32.99086 34.46983,33.12124 3.54059,0.0318 3.73771,0.69333 3.73771,12.49543 v 12.45895 h -6.44201 c -8.83146,0 -17.34641,-3.87394 -25.95385,-11.80802 l -7.25358,-6.68617 -0.52507,39.56395 c -0.51935,39.13346 -0.57275,39.65434 -4.92879,47.86989 -6.63233,12.50903 -15.78398,19.58348 -30.35229,23.46295 -9.608189,2.5586 -12.728344,2.62077 -20.893993,0.41637 z"
       style="fill:#000000;fill-opacity:1;stroke:none;stroke-width:1.88356;stroke-linecap:square;stroke-linejoin:round;stroke-miterlimit:4;stroke-dasharray:none;stroke-opacity:1;paint-order:normal" />
  </g>
</svg>
