<?xml version="1.0" encoding="UTF-8" standalone="no"?>
<!-- Created with Inkscape (http://www.inkscape.org/) -->

<svg
   width="100mm"
   height="100mm"
   viewBox="0 0 100 100"
   version="1.1"
   id="svg5"
   sodipodi:docname="SM-polos-Pinterest.svg"
   inkscape:version="1.1.2 (b8e25be833, 2022-02-05)"
   xmlns:inkscape="http://www.inkscape.org/namespaces/inkscape"
   xmlns:sodipodi="http://sodipodi.sourceforge.net/DTD/sodipodi-0.dtd"
   xmlns="http://www.w3.org/2000/svg"
   xmlns:svg="http://www.w3.org/2000/svg">
  <sodipodi:namedview
     id="namedview7"
     pagecolor="#ffffff"
     bordercolor="#666666"
     borderopacity="1.0"
     inkscape:pageshadow="2"
     inkscape:pageopacity="0.0"
     inkscape:pagecheckerboard="0"
     inkscape:document-units="mm"
     showgrid="false"
     inkscape:zoom="0.19181313"
     inkscape:cx="377.97204"
     inkscape:cy="370.15193"
     inkscape:window-width="1600"
     inkscape:window-height="837"
     inkscape:window-x="-8"
     inkscape:window-y="-8"
     inkscape:window-maximized="1"
     inkscape:current-layer="layer1"
     width="100mm"
     fit-margin-top="0"
     fit-margin-left="0"
     fit-margin-right="0"
     fit-margin-bottom="0"
     inkscape:snap-object-midpoints="true" />
  <defs
     id="defs2" />
  <g
     inkscape:label="Layer 1"
     inkscape:groupmode="layer"
     id="layer1"
     transform="translate(-5.3645325,-50.475372)">
    <path
       style="fill:#ff0000;fill-opacity:1;stroke:none;stroke-width:0.939086;stroke-linecap:square;stroke-linejoin:round;stroke-miterlimit:4;stroke-dasharray:none;stroke-opacity:1;paint-order:normal"
       d="m 36.098048,138.15476 c -0.668777,-5.35247 0.08611,-14.03142 1.728631,-19.87268 3.838835,-13.65273 5.293934,-21.152891 4.506014,-23.225305 -2.229438,-5.86386 -0.06127,-14.255633 4.383258,-16.965602 3.519117,-2.145702 5.220861,-2.057286 7.676962,0.398748 2.681097,2.68112 2.674046,7.083156 -0.02483,15.773837 -1.131877,3.64414 -2.063567,7.786742 -2.070441,9.205762 -0.02839,5.57272 5.786322,8.99412 11.870131,6.98631 6.737856,-2.2237 11.225658,-10.522834 11.912111,-22.028514 C 76.634161,79.13672 75.635005,75.744823 70.969593,71.079413 66.237944,66.347778 58.691703,64.178326 51.787648,65.564855 38.76439,68.180311 31.33613,76.692353 31.33613,89.000266 c 0,4.201363 0.435422,6.280016 1.799976,8.592734 1.339963,2.271076 1.6646,3.77243 1.270254,5.87447 -0.291296,1.55304 -0.814416,2.99966 -1.162347,3.2147 -1.275781,0.78849 -6.27714,-3.47507 -8.290016,-7.067074 -1.812696,-3.234809 -2.066756,-4.67469 -2.039962,-11.562991 0.02839,-6.976672 0.294491,-8.375781 2.358931,-12.349235 3.450791,-6.641292 9.227871,-11.834901 16.559776,-14.887162 5.538233,-2.305564 7.080927,-2.579489 14.527306,-2.579489 7.016532,0 9.170379,0.335939 13.650316,2.129396 14.027201,5.615526 20.550025,19.316806 16.729446,35.140438 -3.435129,14.227247 -12.715167,23.190157 -24.010712,23.190157 -5.139435,0 -8.195219,-1.05717 -11.36982,-3.93346 l -2.168276,-1.9645 -1.832251,7.56224 c -1.00777,4.15926 -2.468435,8.93375 -3.246007,10.61 -1.50683,3.24859 -6.687037,11.74404 -7.161013,11.74404 -0.15593,0 -0.539854,-2.0519 -0.853192,-4.55973 z"
       id="path4612-1"
       inkscape:connector-curvature="0" />
  </g>
</svg>
