<?xml version="1.0" encoding="UTF-8" standalone="no"?>
<!-- Created with Inkscape (http://www.inkscape.org/) -->

<svg
   width="100mm"
   height="100mm"
   viewBox="0 0 100 100"
   version="1.1"
   id="svg5"
   sodipodi:docname="SM-polos-Facebook.svg"
   inkscape:version="1.1.2 (b8e25be833, 2022-02-05)"
   xmlns:inkscape="http://www.inkscape.org/namespaces/inkscape"
   xmlns:sodipodi="http://sodipodi.sourceforge.net/DTD/sodipodi-0.dtd"
   xmlns="http://www.w3.org/2000/svg"
   xmlns:svg="http://www.w3.org/2000/svg">
  <sodipodi:namedview
     id="namedview7"
     pagecolor="#ffffff"
     bordercolor="#666666"
     borderopacity="1.0"
     inkscape:pageshadow="2"
     inkscape:pageopacity="0.0"
     inkscape:pagecheckerboard="0"
     inkscape:document-units="mm"
     showgrid="false"
     inkscape:lockguides="true"
     inkscape:zoom="0.19181313"
     inkscape:cx="398.82567"
     inkscape:cy="417.0726"
     inkscape:window-width="1600"
     inkscape:window-height="837"
     inkscape:window-x="-8"
     inkscape:window-y="-8"
     inkscape:window-maximized="1"
     inkscape:current-layer="layer1"
     width="100mm"
     inkscape:snap-object-midpoints="true" />
  <defs
     id="defs2" />
  <g
     inkscape:label="Layer 1"
     inkscape:groupmode="layer"
     id="layer1">
    <path
       style="fill:#0080ff;fill-opacity:1;stroke:none;stroke-width:1.01629;stroke-linecap:square;stroke-linejoin:round;stroke-miterlimit:4;stroke-dasharray:none;stroke-opacity:1;paint-order:normal"
       d="M 40.137505,75.809462 V 55.642557 h -7.17048 -7.17048 V 47.5758 39.509037 h 7.17048 7.17048 V 31.4199 c 0,-8.917958 1.90201,-15.967936 5.53433,-20.513475 3.59392,-4.4975161 12.80555,-7.5870778 20.10723,-6.7439438 8.9603,1.0346841 8.41807,0.5244321 8.41807,7.9218598 v 6.600816 l -5.84477,0.372148 c -8.53056,0.543222 -9.74973,2.033095 -10.15383,12.408886 l -0.31333,8.042846 h 8.2531 c 8.10727,0 8.24438,0.03567 7.76014,2.016691 -0.27113,1.109172 -0.96121,4.739218 -1.5336,8.066767 l -1.04072,6.050062 h -6.6303 -6.63029 v 20.166905 20.166909 h -8.96303 -8.96308 z"
       id="path4592-8"
       inkscape:connector-curvature="0" />
  </g>
</svg>
