<?xml version="1.0" encoding="UTF-8" standalone="no"?>
<!-- Created with Inkscape (http://www.inkscape.org/) -->

<svg
   width="100mm"
   height="100mm"
   viewBox="0 0 100 100"
   version="1.1"
   id="svg5"
   sodipodi:docname="SM-polos-Tiktok.svg"
   inkscape:version="1.1.2 (b8e25be833, 2022-02-05)"
   xmlns:inkscape="http://www.inkscape.org/namespaces/inkscape"
   xmlns:sodipodi="http://sodipodi.sourceforge.net/DTD/sodipodi-0.dtd"
   xmlns="http://www.w3.org/2000/svg"
   xmlns:svg="http://www.w3.org/2000/svg">
  <sodipodi:namedview
     id="namedview7"
     pagecolor="#ffffff"
     bordercolor="#666666"
     borderopacity="1.0"
     inkscape:pageshadow="2"
     inkscape:pageopacity="0.0"
     inkscape:pagecheckerboard="0"
     inkscape:document-units="mm"
     showgrid="false"
     inkscape:zoom="0.19181313"
     inkscape:cx="398.82567"
     inkscape:cy="495.27371"
     inkscape:window-width="1600"
     inkscape:window-height="837"
     inkscape:window-x="-8"
     inkscape:window-y="-8"
     inkscape:window-maximized="1"
     inkscape:current-layer="layer1"
     width="100mm"
     inkscape:snap-object-midpoints="true" />
  <defs
     id="defs2">
    <filter
       inkscape:collect="always"
       style="color-interpolation-filters:sRGB"
       id="filter5016"
       x="-0.078299652"
       width="1.1565993"
       y="-0.06663855"
       height="1.1332771">
      <feGaussianBlur
         inkscape:collect="always"
         stdDeviation="0.68081385"
         id="feGaussianBlur5018" />
    </filter>
  </defs>
  <g
     inkscape:label="Layer 1"
     inkscape:groupmode="layer"
     id="layer1">
    <g
       id="g828"
       transform="translate(-2.627487,0.01232167)">
      <path
         inkscape:connector-curvature="0"
         id="Shadow"
         d="m -503.35086,164.84985 c -3.25275,-0.87815 -5.39083,-3.31582 -5.67708,-6.47257 -0.36626,-4.03925 2.271,-7.40825 6.26508,-8.0034 l 1.2413,-0.18496 v 1.7283 c 0,1.58511 -0.0458,1.7283 -0.55241,1.7283 -1.70035,0 -3.6297,2.17307 -3.62786,4.08615 0.004,3.26779 4.19239,4.99434 6.72639,2.77223 1.29782,-1.13808 1.37379,-1.75531 1.37379,-11.16189 v -8.76285 h 1.69862 c 1.53547,0 1.69863,0.0512 1.69863,0.53307 0,1.99833 3.3215,5.18988 5.42254,5.21039 0.55698,0.005 0.58799,0.10907 0.58799,1.96569 v 1.95995 h -1.01341 c -1.3893,0 -2.72881,-0.60942 -4.08287,-1.85755 l -1.14108,-1.05182 -0.0826,6.22391 c -0.0817,6.15619 -0.0901,6.23813 -0.77536,7.53054 -1.04335,1.96783 -2.48302,3.08073 -4.7748,3.69102 -1.51149,0.4025 -2.00233,0.41228 -3.28689,0.0655 z"
         style="fill:#898989;fill-opacity:1;stroke:none;stroke-width:0.296308;stroke-linecap:square;stroke-linejoin:round;stroke-miterlimit:4;stroke-dasharray:none;stroke-opacity:1;paint-order:normal;filter:url(#filter5016)"
         transform="matrix(3.3205344,0,0,3.3205344,1708.3384,-457.51941)" />
      <path
         inkscape:connector-curvature="0"
         id="Main"
         d="M 40.458347,93.384442 C 29.657479,90.468512 22.55791,82.374146 21.607407,71.892051 20.391229,58.479579 29.148341,47.292696 42.410821,45.31648 L 46.5326,44.702318 v 5.738879 c 0,5.263411 -0.15208,5.738881 -1.834296,5.738881 -5.646071,0 -12.052544,7.215753 -12.046434,13.568199 0.01328,10.850809 13.920975,16.583879 22.335209,9.205285 4.309456,-3.779034 4.561715,-5.828564 4.561715,-37.063438 V 12.792777 h 5.640332 c 5.098578,0 5.640356,0.170012 5.640356,1.770078 0,6.635523 11.029154,17.233175 18.005733,17.301281 1.849471,0.01661 1.952439,0.362169 1.952439,6.527139 v 6.508083 h -3.365062 c -4.613221,0 -9.061108,-2.023599 -13.557308,-6.168062 l -3.788996,-3.492602 -0.274276,20.66671 c -0.271289,20.441837 -0.299183,20.713925 -2.574614,25.005417 -3.464478,6.534244 -8.244954,10.229668 -15.854887,12.256156 -5.018954,1.336516 -6.648805,1.368991 -10.91423,0.217496 z"
         style="fill:#000000;fill-opacity:1;stroke:none;stroke-width:0.9839;stroke-linecap:square;stroke-linejoin:round;stroke-miterlimit:4;stroke-dasharray:none;stroke-opacity:1;paint-order:normal" />
    </g>
  </g>
</svg>
