<?xml version="1.0" encoding="UTF-8" standalone="no"?>
<!-- Created with Inkscape (http://www.inkscape.org/) -->

<svg
   width="210mm"
   height="297mm"
   viewBox="0 0 210 297"
   version="1.1"
   id="svg5"
   inkscape:version="1.1.2 (b8e25be833, 2022-02-05)"
   sodipodi:docname="SM-Twitter.svg"
   xmlns:inkscape="http://www.inkscape.org/namespaces/inkscape"
   xmlns:sodipodi="http://sodipodi.sourceforge.net/DTD/sodipodi-0.dtd"
   xmlns="http://www.w3.org/2000/svg"
   xmlns:svg="http://www.w3.org/2000/svg">
  <sodipodi:namedview
     id="namedview7"
     pagecolor="#ffffff"
     bordercolor="#666666"
     borderopacity="1.0"
     inkscape:pageshadow="2"
     inkscape:pageopacity="0.0"
     inkscape:pagecheckerboard="0"
     inkscape:document-units="mm"
     showgrid="false"
     inkscape:lockguides="true"
     inkscape:zoom="0.54252946"
     inkscape:cx="397.21345"
     inkscape:cy="562.18145"
     inkscape:window-width="1600"
     inkscape:window-height="837"
     inkscape:window-x="-8"
     inkscape:window-y="-8"
     inkscape:window-maximized="1"
     inkscape:current-layer="layer1" />
  <defs
     id="defs2" />
  <g
     inkscape:label="Layer 1"
     inkscape:groupmode="layer"
     id="layer1">
    <rect
       style="fill:none;stroke-width:3.47344;stroke-linecap:square;stroke-dashoffset:39.3071;stroke:none;stroke-opacity:1;fill-opacity:1"
       id="rect846"
       width="200"
       height="200"
       x="3.9014776"
       y="36.088669" />
    <g
       id="g28229"
       transform="matrix(3.2485742,0,0,3.2485742,2514.1269,344.36423)">
      <circle
         style="fill:#00aaff;fill-opacity:1;stroke:none;stroke-width:0.263;stroke-linecap:square;stroke-dashoffset:39.3071;stroke-opacity:0.6"
         id="path24356"
         cx="-742.39124"
         cy="-64.270615"
         r="27.544548" />
      <path
         id="path24504"
         style="fill:#ffffff;stroke-width:0.147629;stroke-linecap:square;stroke-dashoffset:39.3071;stroke-opacity:0.6"
         inkscape:transform-center-x="3.6406067"
         inkscape:transform-center-y="3.6406081"
         d="m -724.091,-79.291804 -14.41768,32.027523 c -0.52665,1.289061 -1.36361,1.400259 -2.21785,0.463919 l -11.93246,-10.819881 c -0.79909,-1.570781 -0.74537,-2.383819 0.91149,-3.463688 5.6872,-3.814715 14.06126,-10.172184 13.70379,-10.52965 -0.36811,-0.368108 -10.86288,5.178437 -16.74852,8.300291 -1.53127,0.751137 -2.31021,0.965451 -3.46405,0.09571 l -5.00307,-5.702349 c -1.05624,-0.72415 -0.65481,-1.768807 0.37521,-2.134332 l 36.72948,-10.072083 c 1.32333,-0.570363 2.20074,0.330987 2.06366,1.834538 z"
         sodipodi:nodetypes="cccccsccccccc" />
    </g>
  </g>
</svg>
