<?xml version="1.0" encoding="UTF-8" standalone="no"?>
<!-- Created with Inkscape (http://www.inkscape.org/) -->

<svg
   width="100mm"
   height="100mm"
   viewBox="0 0 100 100"
   version="1.1"
   id="svg5"
   sodipodi:docname="SM-Twitter2.svg"
   inkscape:version="1.1.2 (b8e25be833, 2022-02-05)"
   xmlns:inkscape="http://www.inkscape.org/namespaces/inkscape"
   xmlns:sodipodi="http://sodipodi.sourceforge.net/DTD/sodipodi-0.dtd"
   xmlns="http://www.w3.org/2000/svg"
   xmlns:svg="http://www.w3.org/2000/svg">
  <sodipodi:namedview
     id="namedview7"
     pagecolor="#ffffff"
     bordercolor="#666666"
     borderopacity="1.0"
     inkscape:pageshadow="2"
     inkscape:pageopacity="0.0"
     inkscape:pagecheckerboard="0"
     inkscape:document-units="mm"
     showgrid="false"
     inkscape:zoom="0.82648893"
     inkscape:cx="184.51548"
     inkscape:cy="208.10926"
     inkscape:window-width="1600"
     inkscape:window-height="837"
     inkscape:window-x="-8"
     inkscape:window-y="-8"
     inkscape:window-maximized="1"
     inkscape:current-layer="layer1"
     inkscape:snap-object-midpoints="true"
     width="100mm" />
  <defs
     id="defs2">
    <clipPath
       clipPathUnits="userSpaceOnUse"
       id="clipPath5152">
      <path
         style="opacity:0.5;fill:#ff497d;fill-opacity:1;stroke:none;stroke-width:0.147748;stroke-linecap:square;stroke-linejoin:round;stroke-miterlimit:4;stroke-dasharray:none;stroke-opacity:1;paint-order:normal"
         d="m -441.58482,29.170317 v 25.374854 h -27.68166 c 9.60397,-7.918273 18.59211,-16.633741 27.68166,-25.374854 z"
         id="path5154"
         inkscape:connector-curvature="0"
         sodipodi:nodetypes="cccc" />
    </clipPath>
  </defs>
  <g
     inkscape:label="Layer 1"
     inkscape:groupmode="layer"
     id="layer1">
    <path
       style="fill:#01cdff;fill-opacity:1;stroke:none;stroke-width:1.00551;stroke-linecap:square;stroke-linejoin:round;stroke-miterlimit:4;stroke-dasharray:none;stroke-opacity:1;paint-order:normal"
       d="M 36.630219,93.596436 C 21.517359,88.234276 12.243249,79.149126 7.0084987,64.578296 -2.3197613,38.613196 15.493869,9.5667193 43.477209,5.1134293 73.099419,0.39931135 100.35875,28.291616 94.752529,57.579416 c -3.40577,17.79245 -15.11206,30.80403 -32.81049,36.46915 -6.22266,1.9918 -19.07061,1.76231 -25.31182,-0.45213 z m 14.29004,-23.36146 c 11.37985,-3.45375 18.57081,-12.16601 19.94221,-24.16119 0.44262,-3.87131 1.2237,-5.89394 3.11926,-8.07748 1.63505,-1.88347 2.47133,-3.22185 2.48894,-3.95911 0.0114,-0.43986 -3.98548,0.82029 -4.56204,0.82029 -0.48773,0 1.34223,-1.54112 1.34223,-2.51661 0,-0.61419 1.38639,-1.80417 1.17156,-2.08736 -0.48182,-0.63505 -1.54311,-0.44671 -3.36021,0.52577 -1.36226,0.72906 -2.53215,0.6002 -4.94467,-0.54459 -7.04638,-3.34374 -15.45807,0.48934 -16.65782,7.59076 l -0.56593,3.34949 -3.26254,-0.8557 c -5.1441,-1.34919 -10.1057,-3.91667 -13.29379,-6.87917 -1.61527,-1.50096 -3.26857,-2.72902 -3.674,-2.72902 -1.86418,0 -2.50775,7.68785 -0.89578,10.6999 0.63279,1.1824 0.63279,1.71531 0,1.71531 -1.63049,0 -0.97512,4.52338 1.07192,7.39817 1.09445,1.537 1.86772,3.32671 1.71837,3.97712 -0.43898,1.91151 2.41779,5.52525 5.33887,6.75346 l 2.70567,1.13764 -4.26081,1.45181 c -2.34342,0.79848 -5.38687,1.45179 -6.76317,1.45179 -2.95944,0 -3.26071,1.30537 -0.62668,2.71507 6.38688,3.41815 16.83794,4.38774 23.96841,2.22365 z"
       id="lingkaran"
       inkscape:connector-curvature="0"
       sodipodi:nodetypes="sssscscccssssccccccscscccccscc" />
    <path
       style="fill:#ffffff;stroke-width:2.41911;stroke-linecap:square;stroke-dashoffset:39.3071"
       d="m 145.19251,268.52992 c -21.58175,-2.05239 -47.906271,-11.59777 -48.772992,-17.68528 -0.330381,-2.32046 0.323677,-2.72057 5.444722,-3.33067 14.68983,-1.75007 43.93324,-9.44991 43.93324,-11.5677 0,-0.4252 -3.13072,-2.06956 -6.95714,-3.65413 -12.35278,-5.11543 -23.2913,-17.73759 -23.2913,-26.87624 0,-2.47855 -1.83843,-7.14572 -4.83396,-12.27183 -5.87506,-10.05373 -8.47536,-17.38898 -8.47536,-23.90837 0,-3.96351 0.48773,-5.03828 2.52852,-5.57196 2.77437,-0.72551 2.70054,-2.11893 -0.56199,-10.60664 -3.4903,-9.0803 -1.93988,-32.20072 2.40093,-35.80326 1.73867,-1.44297 3.93774,0.0266 21.04123,14.06118 9.0162,7.39842 28.07878,16.61002 43.92746,21.22706 7.19073,2.0948 13.22635,3.61212 13.4125,3.37181 0.18614,-0.2403 1.20406,-4.94751 2.26204,-10.46046 2.34541,-12.22155 6.31822,-19.32209 14.3734,-25.68934 13.17401,-10.41346 30.36352,-12.15639 48.42986,-4.91055 10.83645,4.34616 13.11029,4.48958 20.19702,1.27389 2.90091,-1.31631 6.30386,-2.3933 7.56211,-2.3933 2.73836,0 3.00582,2.73757 0.47284,4.83975 -0.9982,0.82843 -1.81491,2.30835 -1.81491,3.2887 0,0.98036 -1.14834,3.39516 -2.55186,5.36623 -1.40353,1.97108 -2.25794,3.8777 -1.89869,4.23696 0.35925,0.35925 4.22994,-0.16269 8.60156,-1.15985 4.3716,-0.99717 7.94837,-1.42905 7.94837,-0.95973 0,1.09044 -5.99558,10.02232 -11.44912,17.05625 -5.28346,6.81458 -7.24547,12.63458 -10.28355,30.50454 -4.49211,26.42254 -11.95802,42.57965 -27.08535,58.6159 -24.1325,25.58248 -55.9276,36.6809 -94.55958,33.00704 z"
       id="burung"
       transform="scale(0.26458333)" />
  </g>
</svg>
