<?xml version="1.0" encoding="UTF-8" standalone="no"?>
<!-- Created with Inkscape (http://www.inkscape.org/) -->

<svg
   width="100mm"
   height="100mm"
   viewBox="0 0 100 100"
   version="1.1"
   id="svg5"
   sodipodi:docname="Envelope-empty.svg"
   inkscape:version="1.1.2 (b8e25be833, 2022-02-05)"
   xmlns:inkscape="http://www.inkscape.org/namespaces/inkscape"
   xmlns:sodipodi="http://sodipodi.sourceforge.net/DTD/sodipodi-0.dtd"
   xmlns="http://www.w3.org/2000/svg"
   xmlns:svg="http://www.w3.org/2000/svg">
  <sodipodi:namedview
     id="namedview7"
     pagecolor="#ffffff"
     bordercolor="#666666"
     borderopacity="1.0"
     inkscape:pageshadow="2"
     inkscape:pageopacity="0.0"
     inkscape:pagecheckerboard="0"
     inkscape:document-units="mm"
     showgrid="false"
     inkscape:zoom="0.54252946"
     inkscape:cx="397.21345"
     inkscape:cy="519.78744"
     inkscape:window-width="1600"
     inkscape:window-height="837"
     inkscape:window-x="-8"
     inkscape:window-y="-8"
     inkscape:window-maximized="1"
     inkscape:current-layer="layer1"
     inkscape:snap-object-midpoints="true"
     width="100mm" />
  <defs
     id="defs2" />
  <g
     inkscape:label="Layer 1"
     inkscape:groupmode="layer"
     id="layer1">
    <path
       style="fill:#000000;fill-opacity:1;stroke:none;stroke-width:0.918957;stroke-linecap:square;stroke-linejoin:round;stroke-miterlimit:4;stroke-dasharray:none;stroke-opacity:1;paint-order:normal"
       d="M 12.275043,83.274514 C 5.6936207,79.911221 5.8223801,80.527555 5.5471108,51.06809 5.2725696,21.68801 5.4048337,20.869348 11.023232,17.1512 l 2.952483,-1.953857 h 36.354789 36.354799 l 2.711376,2.068061 c 5.119236,3.904628 5.141657,4.048435 5.135749,32.944526 -0.0055,28.837588 0.100741,28.181493 -5.259629,32.399595 l -2.392914,1.883019 -35.681481,0.219351 C 16.629825,84.924391 15.415809,84.879487 12.275043,83.274514 Z m 74.49884,-5.609606 2.090618,-1.964835 V 50.311536 c 0,-13.963694 -0.273567,-25.360055 -0.607869,-25.325227 -0.334319,0.03477 -4.437325,4.46498 -9.117778,9.844757 -19.365455,22.258905 -20.614708,23.495196 -25.099341,24.838827 -2.679743,0.80286 -4.310714,0.825125 -7.333234,0.09997 -4.381543,-1.051094 -5.998978,-2.404993 -14.519849,-12.153752 -3.311716,-3.78895 -6.422314,-7.25373 -6.912437,-7.699477 -0.490124,-0.445756 -3.563482,-4.001692 -6.829712,-7.902087 -3.266211,-3.900378 -6.224974,-7.091618 -6.575041,-7.091618 -1.398503,0 -1.620394,3.455022 -1.620394,25.231113 0,18.980059 0.206334,23.066043 1.26816,25.119476 2.414687,4.66952 3.141111,4.752456 39.798788,4.545003 L 84.68331,79.629698 Z M 57.999396,50.250201 c 2.494892,-2.563145 6.721916,-7.193706 9.39333,-10.290186 2.671415,-3.09648 7.495983,-8.567158 10.721223,-12.157038 3.225275,-3.589917 5.869427,-6.800637 5.875917,-7.134956 0.0064,-0.334329 -15.123748,-0.607859 -33.622714,-0.607859 -26.378906,0 -33.629841,0.21854 -33.61281,1.013089 0.01283,0.557193 1.74432,2.88696 3.849711,5.17724 2.10542,2.290297 7.270261,8.125671 11.477458,12.967526 12.119435,13.947718 14.126307,15.692365 18.051107,15.692365 2.988311,0 3.796624,-0.478836 7.866778,-4.660181 z"
       id="line"
       inkscape:connector-curvature="0" />
    <path
       style="fill:#ffffff;stroke-width:3.68527;stroke-linecap:square;stroke-dashoffset:39.3071"
       d="m 176.02731,202.56352 c -3.5482,-2.12471 -9.24707,-6.47621 -12.66416,-9.67001 C 156.6766,186.64392 79.469323,99.960653 69.610219,87.633873 l -5.961714,-7.453895 5.040105,-1.164334 c 8.954028,-2.068503 243.40311,-1.788431 244.68906,0.292305 1.26279,2.043223 -3.13124,7.377393 -47.75714,57.975181 -35.25365,39.97133 -57.43374,62.97005 -64.15744,66.52538 -7.12305,3.76651 -17.95188,3.23647 -25.43578,-1.24499 z"
       id="top"
       transform="scale(0.26458333)" />
    <path
       style="fill:#ffffff;stroke-width:3.68527;stroke-linecap:square;stroke-dashoffset:39.3071"
       d="m 70.042279,299.19286 c -3.041309,-0.38463 -9.004775,-1.96874 -13.252146,-3.52025 -6.232741,-2.27675 -8.54399,-4.48872 -11.980917,-11.46624 -4.211057,-8.54914 -4.26464,-9.49612 -4.817376,-85.13884 -0.557954,-76.3569 0.538376,-101.378778 4.499501,-102.693495 1.153531,-0.382862 12.765804,11.644875 25.80505,26.728295 45.621769,52.77396 79.869919,90.17082 87.284109,95.30885 8.25567,5.72118 22.87987,10.14784 33.5251,10.14784 3.79612,0 11.67066,-1.78417 17.49897,-3.96483 12.61046,-4.71817 25.24721,-16.81343 64.22131,-61.46941 50.76311,-58.16366 58.58763,-66.29566 60.09505,-62.45669 0.7502,1.91054 1.42231,44.56311 1.49356,94.78349 l 0.12955,91.30977 -8.18473,6.84158 -8.18472,6.84158 -121.30133,-0.27617 C 130.15753,300.01645 73.083589,299.57748 70.042279,299.19286 Z"
       id="bottom"
       transform="scale(0.26458333)" />
  </g>
</svg>
