<?xml version="1.0" encoding="UTF-8" standalone="no"?>
<!-- Created with Inkscape (http://www.inkscape.org/) -->

<svg
   width="100mm"
   height="100mm"
   viewBox="0 0 100 100"
   version="1.1"
   id="svg5"
   sodipodi:docname="Envelope-react.svg"
   inkscape:version="1.1.2 (b8e25be833, 2022-02-05)"
   xmlns:inkscape="http://www.inkscape.org/namespaces/inkscape"
   xmlns:sodipodi="http://sodipodi.sourceforge.net/DTD/sodipodi-0.dtd"
   xmlns="http://www.w3.org/2000/svg"
   xmlns:svg="http://www.w3.org/2000/svg">
  <sodipodi:namedview
     id="namedview7"
     pagecolor="#ffffff"
     bordercolor="#666666"
     borderopacity="1.0"
     inkscape:pageshadow="2"
     inkscape:pageopacity="0.0"
     inkscape:pagecheckerboard="0"
     inkscape:document-units="mm"
     showgrid="false"
     inkscape:zoom="0.54252946"
     inkscape:cx="397.21345"
     inkscape:cy="519.78744"
     inkscape:window-width="1600"
     inkscape:window-height="837"
     inkscape:window-x="-8"
     inkscape:window-y="-8"
     inkscape:window-maximized="1"
     inkscape:current-layer="layer1"
     inkscape:snap-object-midpoints="true"
     width="100mm" />
  <defs
     id="defs2" />
  <g
     inkscape:label="Layer 1"
     inkscape:groupmode="layer"
     id="layer1">
    <g
       id="lingkaran"
       transform="translate(-942.39112,-230.83198)">
      <path
         inkscape:connector-curvature="0"
         id="path4588"
         d="m 982.94994,325.63932 c -7.74559,-1.43017 -16.03825,-6.13912 -22.70395,-12.89237 -15.42021,-15.62271 -17.94062,-37.93198 -6.33427,-56.06811 5.89823,-9.2166 13.41376,-15.25172 23.60422,-18.95467 7.77211,-2.82418 21.25738,-2.92336 29.27636,-0.21529 18.6639,6.30288 31.2449,23.79969 31.3171,43.55363 0.048,13.19077 -6.9973,27.65042 -17.373,35.65527 -7.6582,5.90826 -16.0355,8.95874 -25.64782,9.33933 -4.47263,0.17702 -9.93505,-0.0113 -12.13864,-0.41779 z m 38.78906,-22.91088 2.1998,-2.37352 -0.239,-20.10783 c -0.1653,-13.91319 -0.5414,-20.10783 -1.2206,-20.10783 -0.5398,0 -6.149,5.91877 -12.4649,13.15281 -16.23356,18.59373 -18.09423,18.91385 -30.3497,5.22147 -3.78569,-4.22953 -7.54079,-8.35158 -8.34471,-9.16007 -0.80389,-0.80848 -2.97589,-3.31795 -4.82669,-5.5766 -5.41536,-6.60873 -5.80208,-5.47444 -5.80208,17.01796 v 19.102 l 2.60255,2.60257 2.60257,2.60256 h 26.82151 26.82155 z m -19.4617,-25.00475 c 3.4472,-3.79514 7.6205,-8.51652 9.2739,-10.49196 1.6534,-1.97546 4.108,-4.77599 5.4546,-6.22335 1.3467,-1.44742 2.4485,-2.93622 2.4485,-3.30849 0,-0.37227 -12.2201,-0.67686 -27.15567,-0.67686 -14.93566,0 -27.15571,0.31161 -27.15571,0.69247 0,0.38087 0.70116,1.31743 1.55811,2.08127 0.85697,0.76383 2.51892,2.55565 3.69323,3.98185 1.97971,2.40436 12.39648,14.26197 16.53891,18.8266 1.29845,1.43081 2.82309,1.99222 5.44023,2.00329 3.40959,0.0141 4.02679,-0.41461 9.9039,-6.88482 z"
         style="opacity:1;fill:#000000;fill-opacity:1;stroke:none;stroke-width:1.00953;stroke-linecap:square;stroke-linejoin:round;stroke-miterlimit:4;stroke-dasharray:none;stroke-opacity:1;paint-order:normal" />
    </g>
    <path
       style="fill:#ffffff;stroke-width:3.68527;stroke-linecap:square;stroke-dashoffset:39.3071"
       d="m 176.94892,200.19442 c -3.19206,-1.39423 -18.77606,-17.52152 -36.86436,-38.14952 -17.23409,-19.65385 -36.23882,-40.93306 -42.232739,-47.28715 -5.993918,-6.35409 -10.393753,-12.05717 -9.777409,-12.67352 1.83908,-1.83908 147.535438,-2.897706 176.265428,-1.28074 l 26.56473,1.4951 -20.86904,23.96183 c -42.59209,48.90426 -63.09189,70.74239 -69.06993,73.57915 -7.38202,3.503 -16.50063,3.63773 -24.01668,0.35485 z"
       id="kop"
       transform="scale(0.26458333)" />
    <path
       style="fill:#ffffff;stroke-width:3.68527;stroke-linecap:square;stroke-dashoffset:39.3071"
       d="M 79.661474,269.51717 69.12067,258.86521 69.288633,224.81913 c 0.286029,-57.97799 2.44623,-108.36145 4.744562,-110.65978 3.111722,-3.11172 5.878479,-0.87016 22.89916,18.55234 50.271515,57.36542 68.574885,75.95741 80.016565,81.27833 9.51664,4.42568 14.56815,4.37065 24.13993,-0.26296 11.47705,-5.55595 21.80795,-15.35271 54.176,-51.37496 16.01489,-17.82288 33.24422,-36.41323 38.28741,-41.31189 l 9.16946,-8.90666 1.14598,5.22022 c 0.63029,2.87112 1.69926,36.43649 2.37549,74.58971 l 1.22951,69.36949 -7.94987,9.42808 -7.94985,9.42807 H 190.88762 90.202278 Z"
       id="amplop"
       transform="scale(0.26458333)" />
  </g>
</svg>
