<?xml version="1.0" encoding="UTF-8" standalone="no"?>
<!-- Created with Inkscape (http://www.inkscape.org/) -->

<svg
   width="100mm"
   height="100mm"
   viewBox="0 0 100 100"
   version="1.1"
   id="svg5"
   sodipodi:docname="Home-empty.svg"
   inkscape:version="1.1.2 (b8e25be833, 2022-02-05)"
   xmlns:inkscape="http://www.inkscape.org/namespaces/inkscape"
   xmlns:sodipodi="http://sodipodi.sourceforge.net/DTD/sodipodi-0.dtd"
   xmlns="http://www.w3.org/2000/svg"
   xmlns:svg="http://www.w3.org/2000/svg">
  <sodipodi:namedview
     id="namedview7"
     pagecolor="#ffffff"
     bordercolor="#666666"
     borderopacity="1.0"
     inkscape:pageshadow="2"
     inkscape:pageopacity="0.0"
     inkscape:pagecheckerboard="0"
     inkscape:document-units="mm"
     showgrid="false"
     inkscape:zoom="0.54252946"
     inkscape:cx="397.21345"
     inkscape:cy="519.78744"
     inkscape:window-width="1600"
     inkscape:window-height="837"
     inkscape:window-x="-8"
     inkscape:window-y="-8"
     inkscape:window-maximized="1"
     inkscape:current-layer="layer1"
     inkscape:snap-object-midpoints="true"
     width="100mm" />
  <defs
     id="defs2" />
  <g
     inkscape:label="Layer 1"
     inkscape:groupmode="layer"
     id="layer1">
    <path
       style="fill:#000000;fill-opacity:1;stroke:none;stroke-width:0.908635;stroke-linecap:square;stroke-linejoin:round;stroke-miterlimit:4;stroke-dasharray:none;stroke-opacity:1;paint-order:normal"
       d="m 15.322768,93.624511 c -0.29845,-0.29845 -0.542636,-9.659383 -0.542636,-20.802052 V 52.563042 L 10.580463,52.320819 C 5.2911654,52.015744 4.7506988,50.426881 8.5047315,46.218643 9.9728246,44.572915 12.616438,41.468476 14.379435,39.319885 16.14245,37.171303 17.964077,35.015971 18.427472,34.530255 20.095729,32.781758 27.33159,24.587758 33.95029,16.952011 42.144928,7.4981817 44.360996,5.9989799 50.134857,6.0029906 c 5.491711,0.00378 7.861446,1.4447393 13.9621,8.4896924 2.626486,3.033034 5.136045,5.909906 5.576803,6.393057 1.763816,1.933441 10.989164,12.406278 17.555931,19.929834 8.270818,9.475894 8.605477,11.050985 2.478264,11.6637 l -4.006841,0.400687 -0.400687,20.434856 -0.400706,20.434856 -34.517132,0.208751 C 31.398158,94.073253 15.621236,93.923051 15.322768,93.624511 Z M 80.306933,70.700726 80.522272,52.459968 50.2556,52.669969 19.988919,52.879961 19.772203,70.089533 c -0.119276,9.465276 -0.03879,17.673668 0.178833,18.240884 0.314885,0.820537 6.500162,0.988353 30.268058,0.821186 l 29.87233,-0.210137 z m 4.192136,-23.92411 c 0,-0.775255 -2.814975,-4.182744 -12.160229,-14.719828 -1.178716,-1.329061 -2.921417,-3.318008 -3.87267,-4.419886 -0.951262,-1.101887 -3.666124,-4.196294 -6.033059,-6.876477 -2.366927,-2.680183 -4.951623,-5.614655 -5.743727,-6.521049 -0.792123,-0.906393 -2.670841,-2.050889 -4.17499,-2.543324 -5.281791,-1.729219 -6.427492,-0.672045 -34.952139,32.250927 -1.08942,1.257389 -1.980775,2.609699 -1.980775,3.00513 0,0.413226 14.65348,0.718958 34.458808,0.718958 24.829064,0 34.458781,-0.249955 34.458781,-0.894451 z"
       id="line"
       inkscape:connector-curvature="0" />
    <path
       style="fill:#ffffff;stroke-width:3.68527;stroke-linecap:square;stroke-dashoffset:39.3071"
       d="m 67.68534,177.1702 -7.886594,-1.14289 6.007407,-7.37287 c 16.270551,-19.9688 70.890797,-81.53356 87.858647,-99.029161 22.45338,-23.151739 30.7638,-28.16046 41.76536,-25.172152 4.0281,1.094134 9.90773,3.938455 13.06587,6.320715 3.15813,2.38226 25.57874,26.976885 49.82356,54.654728 55.92167,63.84005 60.52652,69.40025 58.85852,71.06967 -1.65683,1.65825 -238.28894,2.29557 -249.49277,0.67196 z"
       id="roof"
       transform="scale(0.26458333)" />
    <path
       style="fill:#ffffff;stroke-width:3.68527;stroke-linecap:square;stroke-dashoffset:39.3071"
       d="m 78.33676,333.65557 c -2.388116,-1.5147 -2.695821,-10.59999 -2.258367,-66.68048 0.278554,-35.70976 0.693278,-65.10327 0.921609,-65.31891 0.228332,-0.21564 51.218838,-1.00234 113.312248,-1.74822 l 112.89709,-1.35615 v 40.51559 c 0,22.28358 -0.54423,53.08919 -1.20939,68.45693 l -1.20939,27.94132 -109.84449,-0.0282 c -66.2702,-0.017 -110.941264,-0.72388 -112.60931,-1.78186 z"
       id="wall"
       transform="scale(0.26458333)" />
  </g>
</svg>
