<?xml version="1.0" encoding="UTF-8" standalone="no"?>
<!-- Created with Inkscape (http://www.inkscape.org/) -->

<svg
   width="100mm"
   height="100mm"
   viewBox="0 0 100 100"
   version="1.1"
   id="svg5"
   sodipodi:docname="People-empty.svg"
   inkscape:version="1.1.2 (b8e25be833, 2022-02-05)"
   xmlns:inkscape="http://www.inkscape.org/namespaces/inkscape"
   xmlns:sodipodi="http://sodipodi.sourceforge.net/DTD/sodipodi-0.dtd"
   xmlns="http://www.w3.org/2000/svg"
   xmlns:svg="http://www.w3.org/2000/svg">
  <sodipodi:namedview
     id="namedview7"
     pagecolor="#ffffff"
     bordercolor="#666666"
     borderopacity="1.0"
     inkscape:pageshadow="2"
     inkscape:pageopacity="0.0"
     inkscape:pagecheckerboard="0"
     inkscape:document-units="mm"
     showgrid="false"
     inkscape:zoom="0.54252946"
     inkscape:cx="397.21345"
     inkscape:cy="519.78744"
     inkscape:window-width="1600"
     inkscape:window-height="837"
     inkscape:window-x="-8"
     inkscape:window-y="-8"
     inkscape:window-maximized="1"
     inkscape:current-layer="layer1"
     inkscape:snap-object-midpoints="true"
     width="100mm" />
  <defs
     id="defs2" />
  <g
     inkscape:label="Layer 1"
     inkscape:groupmode="layer"
     id="layer1">
    <path
       style="fill:#000000;fill-opacity:1;stroke:none;stroke-width:0.928977;stroke-linecap:square;stroke-linejoin:round;stroke-miterlimit:4;stroke-dasharray:none;stroke-opacity:1;paint-order:normal"
       d="M 19.383138,93.436511 C 18.078616,92.576503 16.276279,90.712007 15.377936,89.293185 12.864647,85.323714 13.739957,75.740205 17.298473,68.265803 20.32797,61.902504 27.447615,54.313848 33.028562,51.499505 34.939244,50.535983 36.59039,49.674421 36.697723,49.584921 36.805001,49.495385 35.145941,47.601534 33.01082,45.376279 18.709086,30.470751 28.449353,6.2075785 49.201796,5.0442983 57.902209,4.55657 65.711356,8.7778833 70.66139,16.644525 c 2.503489,3.978526 2.656464,4.662985 2.682432,12.002531 0.03166,8.956462 -1.185944,12.07879 -6.846849,17.556747 l -3.326338,3.218858 4.281072,2.403444 c 5.674118,3.185546 10.751206,8.16569 13.956224,13.689787 3.516029,6.060136 4.635452,10.024831 4.650268,16.469807 0.0092,4.287494 -0.37492,5.98397 -1.85558,8.18114 -3.244255,4.814129 -3.28111,4.819338 -34.181489,4.826635 -26.446015,0.0064 -28.418829,-0.09401 -30.637992,-1.556963 z m 58.466903,-4.556122 c 2.88854,-1.493726 3.570975,-4.235135 2.552977,-10.255582 C 78.667903,68.363363 72.606221,60.534174 62.315183,55.262849 60.428003,54.29619 56.876711,53.661587 51.896604,53.401095 c -9.917857,-0.518767 -15.54775,1.434851 -22.38985,7.769439 -5.265721,4.875121 -7.642019,8.825866 -9.424304,15.6685 -1.694047,6.503961 -1.512315,8.148961 1.199895,10.861171 l 2.394904,2.394904 h 25.911899 c 21.295301,0 26.330362,-0.216414 28.260893,-1.21472 z M 56.995115,45.848014 c 4.82715,-2.19901 8.733991,-6.380745 10.459932,-11.195896 1.8903,-5.273764 1.773323,-8.070522 -0.542508,-12.969163 -3.458885,-7.316523 -9.18309,-11.060663 -16.910053,-11.060663 -15.557568,0 -23.905809,18.354005 -13.648488,30.006895 5.771302,6.55656 13.445417,8.496854 20.641117,5.218827 z"
       id="outline"
       inkscape:connector-curvature="0" />
    <path
       style="fill:#ffffff;stroke-width:3.68527;stroke-linecap:square;stroke-dashoffset:39.3071"
       d="m 174.05386,176.38106 c -17.62569,-4.98102 -37.29308,-21.1312 -45.56586,-37.41711 -25.11583,-49.443385 19.87752,-107.695907 74.57136,-96.546928 22.16154,4.517483 38.00459,17.531459 48.74869,40.043696 7.69854,16.130833 8.69828,28.111632 3.61936,43.373802 -2.20523,6.62672 -6.54756,15.88033 -9.64961,20.56358 -15.45437,23.33184 -47.64369,36.78803 -71.72394,29.98296 z"
       id="kepala"
       transform="scale(0.26458333)" />
    <path
       style="fill:#ffffff;stroke-width:3.68527;stroke-linecap:square;stroke-dashoffset:39.3071"
       d="m 81.199606,329.8501 -8.890598,-9.50477 1.059588,-11.34687 c 1.513826,-16.21121 9.302208,-39.31572 17.533614,-52.01409 9.91097,-15.28939 34.0958,-37.46665 48.47813,-44.45398 15.09943,-7.33572 27.181,-9.7798 48.2578,-9.7625 35.88572,0.0295 55.18842,7.17399 79.08568,29.27208 16.31493,15.0866 25.95249,29.72222 31.83565,48.34575 9.40071,29.75849 7.8048,47.57399 -4.88181,54.49671 -5.67365,3.09594 -13.56977,3.39038 -104.86156,3.91024 l -98.725895,0.5622 z"
       id="badan"
       transform="scale(0.26458333)" />
  </g>
</svg>
